<svg width="32" height="32" viewBox="0 0 32 32" fill="none" xmlns="http://www.w3.org/2000/svg">
<g clip-path="url(#clip0)">
<path d="M25.605 12.7499L25.195 13.4649C25.045 13.7299 24.725 13.8399 24.44 13.7349C23.85 13.5149 23.31 13.1999 22.835 12.8049C22.605 12.6149 22.545 12.2799 22.695 12.0199L23.105 11.3049C22.76 10.9049 22.49 10.4399 22.31 9.93495H21.485C21.185 9.93495 20.925 9.71995 20.875 9.41995C20.775 8.81995 20.77 8.18995 20.875 7.56495C20.925 7.26495 21.185 7.04495 21.485 7.04495H22.31C22.49 6.53995 22.76 6.07495 23.105 5.67495L22.695 4.95995C22.545 4.69995 22.6 4.36495 22.835 4.17495C23.31 3.77995 23.855 3.46495 24.44 3.24495C24.725 3.13995 25.045 3.24995 25.195 3.51495L25.605 4.22995C26.13 4.13495 26.665 4.13495 27.19 4.22995L27.6 3.51495C27.75 3.24995 28.07 3.13995 28.355 3.24495C28.945 3.46495 29.485 3.77995 29.96 4.17495C30.19 4.36495 30.25 4.69995 30.1 4.95995L29.69 5.67495C30.035 6.07495 30.305 6.53995 30.485 7.04495H31.31C31.61 7.04495 31.87 7.25995 31.92 7.55995C32.02 8.15995 32.025 8.78995 31.92 9.41495C31.87 9.71495 31.61 9.93495 31.31 9.93495H30.485C30.305 10.4399 30.035 10.9049 29.69 11.3049L30.1 12.0199C30.25 12.2799 30.195 12.6149 29.96 12.8049C29.485 13.1999 28.94 13.5149 28.355 13.7349C28.07 13.8399 27.75 13.7299 27.6 13.4649L27.19 12.7499C26.67 12.8449 26.13 12.8449 25.605 12.7499ZM25.08 9.80995C27.005 11.2899 29.2 9.09495 27.72 7.16995C25.795 5.68495 23.6 7.88495 25.08 9.80995ZM19.315 17.5049L21 18.3449C21.505 18.6349 21.725 19.2499 21.525 19.7999C21.08 21.0099 20.205 22.1199 19.395 23.0899C19.025 23.5349 18.385 23.6449 17.88 23.3549L16.425 22.5149C15.625 23.1999 14.695 23.7449 13.68 24.0999V25.7799C13.68 26.3599 13.265 26.8599 12.695 26.9599C11.465 27.1699 10.175 27.1799 8.89998 26.9599C8.32498 26.8599 7.89998 26.3649 7.89998 25.7799V24.0999C6.88498 23.7399 5.95498 23.1999 5.15498 22.5149L3.69998 23.3499C3.19998 23.6399 2.55498 23.5299 2.18498 23.0849C1.37498 22.1149 0.519981 21.0049 0.0749812 19.7999C-0.125019 19.2549 0.0949812 18.6399 0.599981 18.3449L2.26498 17.5049C2.06998 16.4599 2.06998 15.3849 2.26498 14.3349L0.599981 13.4899C0.0949812 13.1999 -0.130019 12.5849 0.0749812 12.0399C0.519981 10.8299 1.37498 9.71995 2.18498 8.74995C2.55498 8.30495 3.19498 8.19495 3.69998 8.48495L5.15498 9.32495C5.95498 8.63995 6.88498 8.09495 7.89998 7.73995V6.05495C7.89998 5.47995 8.30998 4.97995 8.87998 4.87995C10.11 4.66995 11.405 4.65995 12.68 4.87495C13.255 4.97495 13.68 5.46995 13.68 6.05495V7.73495C14.695 8.09495 15.625 8.63495 16.425 9.31995L17.88 8.47995C18.38 8.18995 19.025 8.29995 19.395 8.74495C20.205 9.71495 21.055 10.8249 21.5 12.0349C21.7 12.5799 21.505 13.1949 21 13.4899L19.315 14.3299C19.51 15.3799 19.51 16.4549 19.315 17.5049ZM13.435 18.5599C16.395 14.7099 12 10.3149 8.14998 13.2749C5.18998 17.1249 9.58498 21.5199 13.435 18.5599ZM25.605 27.6949L25.195 28.4099C25.045 28.6749 24.725 28.7849 24.44 28.6799C23.85 28.4599 23.31 28.1449 22.835 27.7499C22.605 27.5599 22.545 27.2249 22.695 26.9649L23.105 26.2499C22.76 25.8499 22.49 25.3849 22.31 24.8799H21.485C21.185 24.8799 20.925 24.6649 20.875 24.3649C20.775 23.7649 20.77 23.1349 20.875 22.5099C20.925 22.2099 21.185 21.9899 21.485 21.9899H22.31C22.49 21.4849 22.76 21.0199 23.105 20.6199L22.695 19.9049C22.545 19.6449 22.6 19.3099 22.835 19.1199C23.31 18.7249 23.855 18.4099 24.44 18.1899C24.725 18.0849 25.045 18.1949 25.195 18.4599L25.605 19.1749C26.13 19.0799 26.665 19.0799 27.19 19.1749L27.6 18.4599C27.75 18.1949 28.07 18.0849 28.355 18.1899C28.945 18.4099 29.485 18.7249 29.96 19.1199C30.19 19.3099 30.25 19.6449 30.1 19.9049L29.69 20.6199C30.035 21.0199 30.305 21.4849 30.485 21.9899H31.31C31.61 21.9899 31.87 22.2049 31.92 22.5049C32.02 23.1049 32.025 23.7349 31.92 24.3599C31.87 24.6599 31.61 24.8799 31.31 24.8799H30.485C30.305 25.3849 30.035 25.8499 29.69 26.2499L30.1 26.9649C30.25 27.2249 30.195 27.5599 29.96 27.7499C29.485 28.1449 28.94 28.4599 28.355 28.6799C28.07 28.7849 27.75 28.6749 27.6 28.4099L27.19 27.6949C26.67 27.7899 26.13 27.7899 25.605 27.6949ZM25.08 24.7499C27.005 26.2299 29.2 24.0349 27.72 22.1099C25.795 20.6299 23.6 22.8249 25.08 24.7499Z" fill="#B0ABE9"/>
</g>
<defs>
<clipPath id="clip0">
<rect width="32" height="32" fill="white"/>
</clipPath>
</defs>
</svg>
