<svg width="143" height="48" viewBox="0 0 143 48" fill="none" xmlns="http://www.w3.org/2000/svg">
<path d="M67.798 13.178V10.89C67.798 10.5673 67.6147 10.406 67.248 10.406H65.664V13.662H67.248C67.6147 13.662 67.798 13.5007 67.798 13.178ZM67.798 18.986V16.676C67.798 16.3533 67.6147 16.192 67.248 16.192H65.664V19.47H67.248C67.6147 19.47 67.798 19.3087 67.798 18.986ZM61.88 7.876H68.348C70.504 7.876 71.582 8.78533 71.582 10.604V12.408C71.582 13.684 71.23 14.5127 70.526 14.894C70.9367 15.07 71.2153 15.3413 71.362 15.708C71.5087 16.06 71.582 16.544 71.582 17.16V19.272C71.582 21.0907 70.504 22 68.348 22H61.88V7.876ZM76.9638 22H73.2238V7.282H76.9638V22ZM81.7378 11.022H84.5318C85.6464 11.022 86.4458 11.2567 86.9298 11.726C87.4138 12.1953 87.6558 12.87 87.6558 13.75V19.272C87.6558 20.152 87.4138 20.8267 86.9298 21.296C86.4458 21.7653 85.6464 22 84.5318 22H81.7378C80.6231 22 79.8238 21.7653 79.3398 21.296C78.8558 20.8267 78.6138 20.152 78.6138 19.272V13.75C78.6138 12.87 78.8558 12.1953 79.3398 11.726C79.8238 11.2567 80.6231 11.022 81.7378 11.022ZM83.9818 18.92V14.102C83.9818 13.7793 83.7984 13.618 83.4318 13.618H82.8378C82.4711 13.618 82.2878 13.7793 82.2878 14.102V18.92C82.2878 19.2427 82.4711 19.404 82.8378 19.404H83.4318C83.7984 19.404 83.9818 19.2427 83.9818 18.92ZM97.9175 15.268H94.3095V14.256C94.3095 13.9333 94.1262 13.772 93.7595 13.772H93.3855C93.0189 13.772 92.8355 13.9333 92.8355 14.256V18.766C92.8355 19.0887 93.0189 19.25 93.3855 19.25H93.7595C94.1262 19.25 94.3095 19.0887 94.3095 18.766V17.754H97.9175V19.272C97.9175 21.0907 96.8395 22 94.6835 22H92.3295C90.1735 22 89.0955 21.0907 89.0955 19.272V13.75C89.0955 11.9313 90.1735 11.022 92.3295 11.022H94.6835C96.8395 11.022 97.9175 11.9313 97.9175 13.75V15.268ZM102.981 22H99.2413V7.282H102.981V16.016L105.049 11.022H108.921L106.567 16.434L108.921 22H105.027L102.981 16.874V22ZM67.292 40.766V38.764C67.292 38.4413 67.1087 38.28 66.742 38.28H64.63C63.5447 38.28 62.7747 38.0453 62.32 37.576C61.88 37.092 61.66 36.4027 61.66 35.508V32.604C61.66 30.7853 62.7307 29.876 64.872 29.876H67.886C70.0273 29.876 71.098 30.7853 71.098 32.604V34.298H67.248V33.11C67.248 32.7873 67.0647 32.626 66.698 32.626H66.06C65.6933 32.626 65.51 32.7873 65.51 33.11V35.2C65.51 35.5227 65.6933 35.684 66.06 35.684H68.128C69.2133 35.684 69.9833 35.9113 70.438 36.366C70.9073 36.8207 71.142 37.488 71.142 38.368V41.272C71.142 43.0907 70.0713 44 67.93 44H64.938C62.782 44 61.704 43.0907 61.704 41.272V39.578H65.554V40.766C65.554 41.0887 65.7373 41.25 66.104 41.25H66.742C67.1087 41.25 67.292 41.0887 67.292 40.766ZM72.6206 31.922V29.282H76.4926V31.922H72.6206ZM76.4266 44H72.6866V33.022H76.4266V44ZM83.7526 35.772H82.3666V40.766C82.3666 41.0887 82.55 41.25 82.9166 41.25H83.7306V44H81.8606C79.7046 44 78.6266 43.0907 78.6266 41.272V35.772H77.4166V33.022H78.6266V30.866H82.3666V33.022H83.7526V35.772ZM87.8608 33.022H90.5448C92.7008 33.022 93.7788 33.9313 93.7788 35.75V39.49H88.1688V40.942C88.1688 41.2647 88.3521 41.426 88.7188 41.426H89.6868C90.0535 41.426 90.2368 41.25 90.2368 40.898V40.282H93.7788V41.272C93.7788 43.0907 92.7008 44 90.5448 44H87.8608C85.7048 44 84.6268 43.0907 84.6268 41.272V35.75C84.6268 33.9313 85.7048 33.022 87.8608 33.022ZM88.1688 37.466H90.2368V36.08C90.2368 35.7573 90.0535 35.596 89.6868 35.596H88.7188C88.3521 35.596 88.1688 35.7573 88.1688 36.08V37.466Z" fill="#2C3A6A"/>
<path d="M99.6066 29.876H106.141C108.297 29.876 109.375 30.7853 109.375 32.604V36.652C109.375 38.4707 108.297 39.38 106.141 39.38H103.457V44H99.6066V29.876ZM105.525 36.146V33.11C105.525 32.7873 105.341 32.626 104.975 32.626H103.457V36.63H104.975C105.341 36.63 105.525 36.4687 105.525 36.146ZM114.433 44H110.693V29.282H114.433V44ZM121.341 33.022H125.081V44H121.407V42.592C121.201 43.5307 120.534 44 119.405 44H119.009C117.058 44 116.083 43.0907 116.083 41.272V33.022H119.823V40.766C119.823 41.0887 120.006 41.25 120.373 41.25H120.747C121.143 41.25 121.341 41.03 121.341 40.59V33.022ZM131.579 41.096V40.216C131.579 39.8933 131.395 39.732 131.029 39.732H129.687C127.575 39.732 126.519 38.83 126.519 37.026V35.75C126.519 33.9313 127.597 33.022 129.753 33.022H131.799C133.955 33.022 135.033 33.9313 135.033 35.75V36.674H131.469V35.926C131.469 35.6033 131.285 35.442 130.919 35.442H130.699C130.332 35.442 130.149 35.6033 130.149 35.926V36.894C130.149 37.2167 130.332 37.378 130.699 37.378H132.041C133.17 37.378 133.977 37.6127 134.461 38.082C134.959 38.5367 135.209 39.1967 135.209 40.062V41.272C135.209 43.0907 134.131 44 131.975 44H129.819C127.663 44 126.585 43.0907 126.585 41.272V40.37H130.215V41.096C130.215 41.4187 130.398 41.58 130.765 41.58H131.029C131.395 41.58 131.579 41.4187 131.579 41.096Z" fill="#FD3E3E"/>
<path d="M14.689 41.8719C14.8796 41.4908 15.2691 41.25 15.6952 41.25H32.2755C32.7167 41.25 33.1171 41.5079 33.2997 41.9095L34.7389 45.0758C34.8277 45.2712 34.8588 45.4879 34.8285 45.7004L34.6379 47.0341C34.5587 47.5883 34.0841 48 33.5242 48H14.1724C13.5822 48 13.0924 47.5439 13.0503 46.9552L12.9594 45.6825C12.945 45.4812 12.9851 45.2798 13.0753 45.0992L14.689 41.8719Z" fill="#2C3B69"/>
<path d="M14.7131 40.8217C14.8867 40.4001 15.2975 40.125 15.7534 40.125H32.204C32.681 40.125 33.1061 40.4258 33.2649 40.8756L34.7208 45.0006C34.9791 45.7325 34.4361 46.5 33.6599 46.5H14.0549C13.2541 46.5 12.7097 45.6871 13.0146 44.9467L14.7131 40.8217Z" fill="url(#paint0_linear)"/>
<path d="M20.25 35.25H27.75L28.5 43.125H19.5L20.25 35.25Z" fill="url(#paint1_linear)"/>
<path d="M0 6.375C0 5.75368 0.50368 5.25 1.125 5.25H46.875C47.4963 5.25 48 5.75368 48 6.375V36C48 36.6213 47.4963 37.125 46.875 37.125H1.125C0.50368 37.125 0 36.6213 0 36V6.375Z" fill="url(#paint2_linear)"/>
<path d="M2.25 8.25C2.25 8.04289 2.41789 7.875 2.625 7.875H45.375C45.5821 7.875 45.75 8.04289 45.75 8.25V34.125C45.75 34.3321 45.5821 34.5 45.375 34.5H2.625C2.41789 34.5 2.25 34.3321 2.25 34.125V8.25Z" fill="url(#paint3_linear)"/>
<path d="M30.4286 0L39 8.99999V21.4285L30 30H17.5715L9 21V8.57145L18 0H30.4286Z" fill="url(#paint4_linear)"/>
<path fill-rule="evenodd" clip-rule="evenodd" d="M37.2857 9.68565L29.6938 1.71423H18.6857L10.7142 9.30609V20.3142L18.3061 28.2857H29.3143L37.2857 20.6938V9.68565ZM35.5714 10.3714L28.9591 3.42852H19.3714L12.4285 10.0408V19.6285L19.0408 26.5714H28.6285L35.5714 19.9591V10.3714Z" fill="white"/>
<path d="M20.3635 8.5105L17.9391 10.9349L21.5756 14.5714L17.9391 18.208L20.3635 20.6323L24 16.9958L27.6366 20.6323L30.0609 18.208L26.4244 14.5714L30.0609 10.9349L27.6366 8.51051L24 12.1471L20.3635 8.5105Z" fill="white"/>
<defs>
<linearGradient id="paint0_linear" x1="23.8125" y1="40.125" x2="23.8125" y2="46.5" gradientUnits="userSpaceOnUse">
<stop stop-color="#2F3D6D"/>
<stop offset="1" stop-color="#1D2B58"/>
</linearGradient>
<linearGradient id="paint1_linear" x1="24" y1="35.25" x2="24" y2="43.125" gradientUnits="userSpaceOnUse">
<stop stop-color="#22305B"/>
<stop offset="1" stop-color="#121D3F"/>
</linearGradient>
<linearGradient id="paint2_linear" x1="24" y1="5.25" x2="24" y2="37.125" gradientUnits="userSpaceOnUse">
<stop stop-color="#22305B"/>
<stop offset="1" stop-color="#121D3F"/>
</linearGradient>
<linearGradient id="paint3_linear" x1="24" y1="7.875" x2="24" y2="34.5" gradientUnits="userSpaceOnUse">
<stop stop-color="#FDB62E"/>
<stop offset="1" stop-color="#F0940A"/>
</linearGradient>
<linearGradient id="paint4_linear" x1="24" y1="0" x2="24" y2="30" gradientUnits="userSpaceOnUse">
<stop stop-color="#FF4444"/>
<stop offset="1" stop-color="#F22424"/>
</linearGradient>
</defs>
</svg>
